<?xml version="1.0" encoding="utf-8"?>
<!-- Generator: Adobe Illustrator 27.0.0, SVG Export Plug-In . SVG Version: 6.00 Build 0)  -->
<svg version="1.1" xmlns="http://www.w3.org/2000/svg" xmlns:xlink="http://www.w3.org/1999/xlink" x="0px" y="0px"
	 viewBox="0 0 586.02 180.55" style="enable-background:new 0 0 586.02 180.55;" xml:space="preserve">
<style type="text/css">
	.Arched_x0020_Green{fill:url(#SVGID_1_);stroke:#FFFFFF;stroke-width:0.25;stroke-miterlimit:1;}
	.st0{fill:#E31B23;}
	.st1{fill:#E8573F;}
	.st2{fill:#FFFFFF;}
	.st3{clip-path:url(#SVGID_00000062881806981399063790000012104238683746819718_);}
	.st4{clip-path:url(#SVGID_00000178179144831136199680000012985518153993191596_);}
	.st5{opacity:0.8;fill:none;stroke:#000000;stroke-width:0.25;}
</style>
<linearGradient id="SVGID_1_" gradientUnits="userSpaceOnUse" x1="-20.9454" y1="676.5068" x2="-20.2383" y2="675.7997">
	<stop  offset="0" style="stop-color:#20AC4B"/>
	<stop  offset="0.9831" style="stop-color:#19361A"/>
</linearGradient>
<g id="Layer_3">
	<g id="chevrons">
		<rect x="33.64" y="36.11" class="st0" width="89.68" height="88.83"/>
		<g>
			<polyline class="st1" points="34.12,109 34.12,109.26 76.86,76.73 34.12,115.72 34.12,116 76.99,76.9 34.12,123.5 34.12,123.8 
				77.12,77.06 40.71,124.44 41.01,124.44 77.28,77.2 46.94,124.44 47.18,124.44 77.44,77.32 52.46,124.44 52.69,124.44 
				77.62,77.41 57.49,124.44 57.71,124.44 77.79,77.54 62.09,124.44 62.3,124.44 77.99,77.57 66.45,124.44 66.65,124.44 
				78.17,77.67 70.59,124.44 70.8,124.44 78.37,77.69 74.59,124.44 74.79,124.44 78.57,77.68 78.54,124.44 78.74,124.44 
				78.77,77.73 82.51,124.44 82.71,124.44 78.97,77.67 86.54,124.44 86.74,124.44 79.16,77.63 90.71,124.44 90.92,124.44 
				79.36,77.59 95.04,124.44 95.25,124.44 79.55,77.53 99.66,124.44 99.88,124.44 79.73,77.43 104.69,124.44 104.92,124.44 
				79.9,77.32 110.23,124.44 110.48,124.44 80.06,77.19 116.52,124.44 116.58,124.44 116.58,124.18 80.21,77.05 122.92,123.47 
				122.92,123.17 80.35,76.9 122.92,115.72 122.92,115.44 80.49,76.74 122.92,109.04 122.92,108.77 80.61,76.56 122.92,103.12 
				122.92,102.87 80.68,76.36 122.92,97.77 122.92,97.53 80.79,76.18 122.92,92.85 122.92,92.61 80.85,75.97 122.92,88.22 
				122.92,88 80.88,75.76 122.92,83.81 122.92,83.59 80.95,75.55 122.92,79.54 122.92,79.32 80.94,75.33 122.92,75.33 122.92,75.11 
				80.97,75.11 122.92,71.12 122.92,70.91 80.93,74.9 122.92,66.85 122.92,66.63 80.91,74.68 122.92,62.45 122.92,62.22 
				80.83,74.48 122.92,57.83 122.92,57.6 80.79,74.27 122.92,52.91 122.92,52.68 80.69,74.08 122.92,47.58 122.92,47.33 
				80.61,73.88 122.92,41.68 122.92,41.41 80.48,73.71 121.71,36.11 121.4,36.11 80.36,73.54 114.8,36.11 114.52,36.11 80.21,73.4 
				109,36.11 108.74,36.11 80.06,73.26 103.99,36.11 103.75,36.11 79.9,73.13 99.56,36.11 99.33,36.11 79.73,73.01 95.56,36.11 
				95.34,36.11 79.54,72.95 91.87,36.11 91.66,36.11 79.36,72.83 88.42,36.11 88.21,36.11 79.16,72.82 85.12,36.11 84.91,36.11 
				78.97,72.77 81.92,36.11 81.72,36.11 78.77,72.72 78.77,36.11 78.57,36.11 78.57,72.77 75.62,36.11 75.42,36.11 78.37,72.74 
				72.43,36.11 72.22,36.11 78.17,72.78 69.13,36.11 68.93,36.11 77.98,72.85 65.68,36.11 65.47,36.11 77.8,72.94 62,36.11 
				61.78,36.11 77.62,73.03 58.01,36.11 57.78,36.11 77.45,73.14 53.6,36.11 53.35,36.11 77.27,73.25 48.61,36.11 48.35,36.11 
				77.13,73.39 42.83,36.11 42.55,36.11 76.98,73.54 35.94,36.11 35.63,36.11 76.87,73.72 34.12,41.18 34.12,41.45 76.75,73.9 
				34.12,47.14 34.12,47.39 76.63,74.07 34.12,52.52 34.12,52.76 76.57,74.28 34.12,57.48 34.12,57.71 76.49,74.48 34.12,62.14 
				34.12,62.36 76.42,74.68 34.12,66.57 34.12,66.79 76.42,74.9 34.12,70.88 34.12,71.1 76.37,75.11 34.12,75.11 34.12,75.33 
				76.4,75.33 34.12,79.35 34.12,79.57 76.4,75.55 34.12,83.65 34.12,83.87 76.46,75.76 34.12,88.09 34.12,88.31 76.48,75.98 
				34.12,92.73 34.12,92.96 76.57,76.17 34.12,97.69 34.12,97.92 76.63,76.38 34.12,103.06 34.12,103.31 76.76,76.55 			"/>
		</g>
		<circle class="st0" cx="78.48" cy="79.24" r="21.88"/>
		<g>
			<polygon class="st2" points="95.46,99.03 102.69,99.63 96.06,91.8 88.82,91.19 88.22,98.43 94.85,106.27 			"/>
			<g>
				<polygon class="st2" points="52.21,83.43 48.07,89.39 58.17,87.57 62.31,81.6 56.35,77.46 46.25,79.29 				"/>
			</g>
			<g>
				<polygon class="st2" points="61.34,99.09 62.01,106.32 68.57,98.42 67.91,91.2 60.68,91.86 54.11,99.75 				"/>
			</g>
			<g>
				<polygon class="st2" points="104.53,83.31 110.45,79.12 100.34,77.39 94.41,81.58 98.6,87.5 108.72,89.24 				"/>
			</g>
			<g>
				<polygon class="st2" points="87.37,53.77 84.27,47.21 80.8,56.87 83.9,63.44 90.47,60.34 93.93,50.68 				"/>
			</g>
			<polygon class="st2" points="69.16,53.76 62.57,50.72 66.12,60.35 72.71,63.39 75.75,56.8 72.2,47.17 			"/>
			<g>
				<polygon class="st2" points="78.31,105.42 83.46,110.53 83.42,100.27 78.26,95.16 73.15,100.31 73.2,110.58 				"/>
			</g>
			<g>
				<polygon class="st2" points="101.36,65.5 103.2,58.48 94.34,63.65 92.49,70.67 99.51,72.52 108.38,67.35 				"/>
			</g>
			<g>
				<polygon class="st2" points="55.28,65.6 48.27,67.51 57.19,72.61 64.19,70.7 62.28,63.69 53.37,58.6 				"/>
			</g>
		</g>
	</g>
</g>
<g id="name_black">
	<g>
		<g>
			<path d="M153.53,104.14c-0.06-1.25-0.17-1.77-0.49-2.47c-0.47-1.05-1.45-1.66-2.7-1.66c-2.38,0-3.55,2.15-3.55,6.51
				c0,4.21,1.13,6.08,3.63,6.08c1.92,0,3.02-1.19,3.46-3.66l4.39,0.26c-0.26,1.92-0.61,2.88-1.45,4.04
				c-1.42,1.98-3.66,3.05-6.42,3.05c-5.26,0-8.66-3.92-8.66-10c0-2.85,0.75-5.26,2.27-7.09c1.57-1.95,3.69-2.88,6.48-2.88
				c2.73,0,4.8,0.93,6.13,2.76c0.96,1.31,1.34,2.44,1.66,4.74L153.53,104.14z"/>
			<path d="M174.7,99.14c1.42,1.95,2.21,4.5,2.21,7.29c0,2.53-0.81,5.23-2.15,7.04c-1.37,1.8-3.57,2.82-6.19,2.82
				c-2.53,0-4.56-0.96-5.96-2.79c-1.45-1.92-2.24-4.45-2.24-7.27c0-2.76,0.78-5.29,2.18-7.09c1.42-1.83,3.55-2.82,6.16-2.82
				C171.33,96.32,173.31,97.25,174.7,99.14z M165.95,101.7c-0.52,1.1-0.84,2.79-0.84,4.59c0,4.21,1.19,6.31,3.6,6.31
				c2.33,0,3.46-2.06,3.46-6.28c0-4.21-1.13-6.31-3.49-6.31C167.41,100.01,166.5,100.56,165.95,101.7z"/>
			<path d="M184.07,100.18V116h-3.81V96.61h7.06l3.4,11.6l3.6-11.6h7.06V116h-4.56v-15.81L191.95,116h-3.11L184.07,100.18z"/>
			<path d="M209.46,100.18V116h-3.81V96.61h7.06l3.4,11.6l3.6-11.6h7.06V116h-4.56v-15.81L217.33,116h-3.11L209.46,100.18z"/>
			<path d="M246.3,108.7c0,3.17-0.44,4.57-1.8,5.78c-1.37,1.22-3.28,1.8-5.87,1.8c-2.73,0-4.71-0.64-6.07-1.92
				c-1.22-1.22-1.71-2.82-1.71-5.67V96.61h4.91v12.09c0,1.57,0.15,2.24,0.55,2.82c0.49,0.7,1.48,1.07,2.73,1.07
				c1.25,0,2.35-0.41,2.85-1.05c0.44-0.55,0.55-1.19,0.55-2.85V96.61h3.87V108.7z"/>
			<path d="M265.2,116h-3.89l-7.59-13.11c0.03,0.32,0.03,0.58,0.03,0.67c0.03,0.44,0.06,0.73,0.06,0.84V116h-3.52V96.61h4.88
				l6.6,11.42c-0.06-0.61-0.09-0.9-0.09-1.28V96.61h3.52V116z"/>
			<path d="M274.02,116h-4.53V96.61h4.53V116z"/>
			<path d="M290.53,100.45h-4.8V116h-4.59v-15.55h-4.82v-3.84h14.21V100.45z"/>
			<path d="M300.77,107.83V116h-4.54v-8.17l-6.1-11.22h5.26l3.72,7.36l3.66-7.36h4.07L300.77,107.83z"/>
			<path d="M326.94,104.14c-0.06-1.25-0.18-1.77-0.49-2.47c-0.47-1.05-1.45-1.66-2.7-1.66c-2.38,0-3.55,2.15-3.55,6.51
				c0,4.21,1.13,6.08,3.63,6.08c1.92,0,3.02-1.19,3.46-3.66l4.39,0.26c-0.26,1.92-0.61,2.88-1.45,4.04
				c-1.42,1.98-3.66,3.05-6.43,3.05c-5.26,0-8.66-3.92-8.66-10c0-2.85,0.75-5.26,2.27-7.09c1.57-1.95,3.69-2.88,6.48-2.88
				c2.73,0,4.8,0.93,6.13,2.76c0.96,1.31,1.34,2.44,1.66,4.74L326.94,104.14z"/>
			<path d="M348.11,99.14c1.42,1.95,2.21,4.5,2.21,7.29c0,2.53-0.81,5.23-2.15,7.04c-1.37,1.8-3.57,2.82-6.19,2.82
				c-2.53,0-4.56-0.96-5.96-2.79c-1.45-1.92-2.24-4.45-2.24-7.27c0-2.76,0.79-5.29,2.18-7.09c1.42-1.83,3.55-2.82,6.16-2.82
				C344.74,96.32,346.71,97.25,348.11,99.14z M339.36,101.7c-0.52,1.1-0.84,2.79-0.84,4.59c0,4.21,1.19,6.31,3.6,6.31
				c2.32,0,3.46-2.06,3.46-6.28c0-4.21-1.13-6.31-3.49-6.31C340.81,100.01,339.91,100.56,339.36,101.7z"/>
			<path d="M365.97,112.16V116h-12.29V96.61h4.59v15.55H365.97z"/>
			<path d="M380.97,112.16V116h-12.29V96.61h4.59v15.55H380.97z"/>
			<path d="M388.31,100.3v3.98h7.27v3.63h-7.27v4.24h9.24V116h-13.86V96.61h13.86v3.69H388.31z"/>
			<path d="M415.72,116h-2.06c-0.23-1.02-0.29-1.19-0.67-2.24c-1.66,1.89-2.99,2.53-5.29,2.53c-4.88,0-7.99-3.78-7.99-9.74
				c0-6.28,3.28-10.23,8.46-10.23c4.13,0,6.86,2.38,7.56,6.65l-4.3,0.58c-0.14-0.99-0.29-1.4-0.58-1.95
				c-0.55-1.02-1.57-1.6-2.76-1.6c-2.41,0-3.75,2.3-3.75,6.45c0,3.95,1.39,6.13,3.95,6.13c1.05,0,1.95-0.41,2.53-1.19
				c0.47-0.64,0.61-1.13,0.61-2.15h-3.66v-3.63h7.96V116z"/>
			<path d="M424.31,100.3v3.98h7.27v3.63h-7.27v4.24h9.24V116h-13.86V96.61h13.86v3.69H424.31z"/>
		</g>
		<g>
			<g>
				<g>
					<path d="M214.11,87.68h-4.34c-0.49-2.14-0.61-2.5-1.41-4.7c-3.48,3.97-6.29,5.31-11.12,5.31c-10.27,0-16.8-7.94-16.8-20.47
						c0-13.2,6.9-21.51,17.78-21.51c8.68,0,14.42,5.01,15.89,13.99l-9.04,1.22c-0.3-2.08-0.61-2.93-1.22-4.09
						c-1.16-2.14-3.3-3.36-5.8-3.36c-5.07,0-7.88,4.83-7.88,13.57c0,8.31,2.93,12.89,8.31,12.89c2.2,0,4.09-0.86,5.32-2.5
						c0.98-1.34,1.28-2.38,1.28-4.52h-7.7v-7.64h16.74V87.68z"/>
					<path d="M254.51,72.34c0,6.66-0.92,9.59-3.79,12.16c-2.87,2.57-6.9,3.79-12.34,3.79c-5.74,0-9.9-1.34-12.77-4.03
						c-2.57-2.57-3.6-5.93-3.6-11.91V46.93h10.32v25.42c0,3.3,0.31,4.7,1.16,5.93c1.04,1.47,3.12,2.26,5.74,2.26s4.95-0.86,5.99-2.2
						c0.92-1.16,1.16-2.5,1.16-5.99V46.93h8.13V72.34z"/>
					<path d="M294.97,87.68H284.7l-2.51-8.37h-13.14l-2.57,8.37h-8.37l13.01-40.75h11.06L294.97,87.68z M280,71.79l-4.34-14.3
						l-4.34,14.3H280z"/>
					<path d="M309.76,87.68h-9.59V46.93h17.9c5.25,0,8.12,0.73,10.57,2.75c2.63,2.14,4.28,5.8,4.28,9.47c0,2.93-1.1,5.86-3.06,7.94
						c-0.98,1.04-1.89,1.65-3.97,2.63l7.51,17.96h-10.57l-6.23-16.13h-6.84V87.68z M309.76,64.58h5.87c3.18,0,3.91-0.12,5.07-0.85
						c1.41-0.86,2.38-2.69,2.38-4.46c0-1.59-0.73-3.12-1.89-4.03c-1.22-0.92-1.96-1.04-5.8-1.04h-5.62V64.58z"/>
					<path d="M353.21,46.93c7.82,0,11.98,1.53,15.76,5.68c3.36,3.79,5.19,8.86,5.19,14.6c0,5.68-1.77,10.75-5.07,14.54
						c-3.42,3.97-8.19,5.93-14.3,5.93h-13.99V46.93H353.21z M350.16,80.04h3.91c3.3,0,5.62-1.04,7.33-3.3
						c1.89-2.57,2.93-5.99,2.93-9.65c0-3.67-1.04-6.9-2.87-9.35c-1.77-2.32-3.91-3.3-7.27-3.3h-4.03V80.04z"/>
					<path d="M390.74,87.68h-9.53V46.93h9.53V87.68z"/>
					<path d="M432.47,87.68H422.2l-2.51-8.37h-13.14L404,87.68h-8.37l13.01-40.75h11.06L432.47,87.68z M417.5,71.79l-4.34-14.3
						l-4.34,14.3H417.5z"/>
				</g>
				<g>
					<path d="M175.49,79.01l-0.14,8.09H142.8V46.35h9.65v32.69L175.49,79.01z"/>
				</g>
			</g>
			<g>
				<path d="M171.17,72.3c-0.22-1.19-0.26-1.42-0.26-2.39c0-0.04,0-0.26,0.04-0.49c-1.79,2.43-3.25,3.25-5.9,3.25
					c-3.51,0-5.79-2.02-5.79-5.15c0-2.61,1.46-4.56,4.11-5.56c1.46-0.52,3.17-0.82,7.32-1.16v-1.05c0-1.79-0.9-2.69-2.73-2.69
					c-1.79,0-2.91,0.93-3.14,2.69l-5-0.49c0.37-1.98,0.93-2.99,2.09-3.88c1.61-1.23,3.88-1.87,6.57-1.87c2.99,0,5.41,0.86,6.61,2.32
					c0.78,1.01,1.01,1.98,1.01,4.7v8.33c0,2.2,0,2.2,0.34,3.43H171.17z M170.68,63.49c-1.68,0.19-2.35,0.3-3.29,0.63
					c-1.6,0.52-2.43,1.46-2.43,2.8c0,1.38,0.93,2.35,2.31,2.35c1.94,0,3.4-1.79,3.4-4.11V63.49z"/>
			</g>
		</g>
	</g>
	<g>
		<g>
			<defs>
				<rect id="SVGID_00000166634717328788808690000016690226705387029674_" x="468.16" y="45.86" width="69.16" height="69.63"/>
			</defs>
			<clipPath id="SVGID_00000091730646634439000380000004212524726960463766_">
				<use xlink:href="#SVGID_00000166634717328788808690000016690226705387029674_"  style="overflow:visible;"/>
			</clipPath>
			<polygon style="clip-path:url(#SVGID_00000091730646634439000380000004212524726960463766_);" points="494.76,81.14 
				494.76,98.72 479.56,81.14 471.71,81.14 471.71,113.94 480.45,113.94 480.45,96.36 495.43,113.94 503.5,113.94 503.5,81.14 			
				"/>
			<g style="clip-path:url(#SVGID_00000091730646634439000380000004212524726960463766_);">
				<defs>
					<rect id="SVGID_00000143594103871294093310000012505430413228417214_" x="468.16" y="45.86" width="69.16" height="69.63"/>
				</defs>
				<clipPath id="SVGID_00000037674440650128465110000005128235958636883368_">
					<use xlink:href="#SVGID_00000143594103871294093310000012505430413228417214_"  style="overflow:visible;"/>
				</clipPath>
				<path style="clip-path:url(#SVGID_00000037674440650128465110000005128235958636883368_);" d="M535.28,67.36v-3.58v-3.23h0
					c0,0,0,0,0,0V49.08l-8.55,0h-0.19v11.48v6.8c0,0.8-0.12,1.53-0.37,2.19c-0.31,0.84-0.82,1.57-1.55,2.21
					c-1.34,1.19-3.3,1.9-5.23,1.9l0,0v0c0,0,0,0-0.01,0c0,0,0,0-0.01,0v0l0,0c-1.93-0.01-3.89-0.72-5.23-1.9
					c-0.72-0.64-1.23-1.37-1.55-2.21c-0.24-0.66-0.37-1.39-0.37-2.19v-6.8V49.08h-0.19l-8.55,0v11.48c0,0,0,0,0,0h0v3.23v3.58v2.19
					h0c0,7.25,7.59,13.01,15.48,13.13c0.08,0,0.16,0,0.25,0c0.03,0,0.06,0,0.09,0c0.02,0,0.04,0,0.06,0v0c0,0,0,0,0.01,0s0,0,0.01,0
					c0,0,0.01,0,0.01,0l0,0c0.02,0,0.03,0,0.05,0c0.03,0,0.06,0,0.09,0c0.08,0,0.16,0,0.25,0c7.89-0.12,15.48-5.71,15.48-13.13h0
					V67.36z"/>
				<path style="clip-path:url(#SVGID_00000037674440650128465110000005128235958636883368_);" d="M493.98,69.56
					c-1.41,2.43-3.93,4.06-6.81,4.1c-0.04,0-0.07,0-0.11,0c-4.48,0-8.12-3.85-8.12-8.6c0-4.75,3.64-8.6,8.12-8.6
					c0.04,0,0.07,0,0.11,0c2.88,0.04,5.4,1.67,6.81,4.1h9.52c0-7.4-7.55-12.99-15.42-13.13c-0.02,0-0.04,0-0.06,0
					c-0.08,0-0.16,0-0.25,0c-0.03,0-0.06,0-0.09,0c-0.02,0-0.03,0-0.05,0l0,0c0,0-0.01,0-0.01,0c0,0,0,0-0.01,0l-0.01,0v0
					c-0.02,0-0.04,0-0.06,0c-0.03,0-0.06,0-0.09,0c-0.08,0-0.16,0-0.24,0h-0.64c-6.25,0-11.72,3.47-14.7,8.64
					c-1.51,2.63-2.38,5.7-2.38,8.98h0v0v0h0c0,3.28,0.87,6.35,2.38,8.98c2.98,5.18,8.45,8.64,14.7,8.64h0.64c0.08,0,0.16,0,0.24,0
					c0.03,0,0.06,0,0.09,0c0.02,0,0.04,0,0.06,0v0c0,0,0,0,0.01,0c0,0,0,0,0.01,0c0,0,0.01,0,0.01,0l0,0c0.02,0,0.03,0,0.05,0
					c0.03,0,0.06,0,0.09,0c0.08,0,0.16,0,0.25,0c0.02,0,0.04,0,0.06,0c7.87-0.14,15.42-5.73,15.42-13.13H493.98z"/>
				<polygon style="clip-path:url(#SVGID_00000037674440650128465110000005128235958636883368_);" points="526.54,81.14 
					519.39,96.19 512.24,81.14 503.5,81.14 515.02,105.39 515.02,113.94 523.76,113.94 523.76,105.39 535.28,81.14 				"/>
			</g>
		</g>
	</g>
	<line class="st5" x1="451.41" y1="46.49" x2="451.35" y2="116.89"/>
</g>
</svg>
